<?xml version="1.0" encoding="UTF-8"?>
<svg xmlns="http://www.w3.org/2000/svg" width="900" height="900" viewBox="0 0 900 900">
  <defs>
    <radialGradient id="bg" cx="50%" cy="45%" r="70%">
      <stop offset="0" stop-color="#fff8ee"/>
      <stop offset="0.5" stop-color="#f7f1ff"/>
      <stop offset="1" stop-color="#dffdf1"/>
    </radialGradient>
    <filter id="glow"><feGaussianBlur stdDeviation="9" result="b"/><feMerge><feMergeNode in="b"/><feMergeNode in="SourceGraphic"/></feMerge></filter>
  </defs>
  <rect width="100%" height="100%" rx="64" fill="url(#bg)"/>
  <g fill="none" stroke="#9f7aea" stroke-width="21" stroke-linecap="round" stroke-linejoin="round" opacity="0.18" filter="url(#glow)">
    <path d="M 308.00 477.60 C 310.05 469.90, 329.89 406.43, 330.40 393.60 C 330.91 380.77, 311.55 343.76, 313.60 337.60 C 315.65 331.44, 347.41 322.29, 352.80 326.40 C 358.19 330.51, 372.91 369.05, 372.40 382.40 C 371.89 395.75, 352.59 461.73, 347.20 472.00 C 341.81 482.27, 316.68 492.35, 313.60 494.40"/>
<path d="M 350.00 477.60 C 352.05 469.39, 371.89 401.35, 372.40 388.00 C 372.91 374.65, 353.29 337.90, 355.60 332.00 C 357.91 326.10, 391.95 318.98, 397.60 323.60 C 403.25 328.22, 417.71 368.80, 417.20 382.40 C 416.69 396.00, 397.65 461.48, 392.00 472.00 C 386.35 482.52, 358.94 494.89, 355.60 497.20"/>
<path d="M 392.00 477.60 C 394.57 468.87, 418.20 396.00, 420.00 382.40 C 421.80 368.80, 408.52 335.10, 411.60 329.20 C 414.68 323.30, 448.21 313.89, 453.60 318.00 C 458.99 322.11, 471.43 360.65, 470.40 374.00 C 469.37 387.35, 448.56 452.05, 442.40 463.60 C 436.24 475.15, 406.79 496.66, 403.20 500.00"/>
<path d="M 450.80 460.80 C 454.14 456.95, 481.30 427.53, 487.20 418.80 C 493.10 410.07, 510.32 376.64, 515.20 365.60 C 520.08 354.56, 538.09 304.56, 540.40 298.40"/>
<path d="M 484.40 472.00 C 487.22 467.12, 510.07 428.04, 515.20 418.80 C 520.33 409.56, 538.09 375.56, 540.40 371.20"/>
<path d="M 518.00 486.00 C 519.80 482.15, 534.52 451.44, 537.60 444.00 C 540.68 436.56, 550.32 408.39, 551.60 404.80"/>
    <g transform="rotate(90.00 670.00 420.00)" opacity="0.65"><path d="M 684.04 376.80 C 682.06 377.49, 665.61 382.38, 662.44 384.36 C 659.27 386.34, 650.77 395.83, 649.48 398.40 C 648.19 400.97, 647.31 410.26, 648.40 412.44 C 649.49 414.62, 660.17 421.27, 661.36 422.16"/>
<path d="M 684.04 376.80 C 684.93 376.11, 691.88 370.03, 693.76 369.24 C 695.64 368.45, 704.16 367.47, 704.56 368.16 C 704.96 368.85, 700.46 375.22, 698.08 376.80 C 695.70 378.38, 680.42 384.65, 678.64 385.44"/></g>
<g transform="rotate(120.00 663.99 560.87)" opacity="0.78"><path d="M 668.31 515.51 C 669.30 516.30, 678.42 522.17, 679.11 524.15 C 679.80 526.13, 677.45 535.03, 675.87 537.11 C 674.28 539.19, 664.40 545.34, 661.83 546.83 C 659.25 548.31, 649.08 552.71, 647.79 553.31"/>
<path d="M 661.83 546.83 C 662.72 548.01, 670.76 557.31, 671.55 559.79 C 672.34 562.26, 672.25 571.05, 670.47 573.83 C 668.69 576.60, 655.47 587.85, 652.11 590.03 C 648.74 592.20, 635.43 596.89, 633.75 597.59"/></g>
<g transform="rotate(150.00 540.91 629.42)" opacity="0.90"><path d="M 541.99 586.22 C 541.99 594.14, 541.99 664.70, 541.99 672.62"/>
<path d="M 512.83 633.74 C 513.62 631.76, 518.60 614.52, 521.47 612.14 C 524.34 609.77, 540.29 607.03, 544.15 607.82 C 548.01 608.62, 561.31 618.01, 563.59 620.78 C 565.87 623.56, 569.49 635.09, 568.99 638.06 C 568.50 641.03, 561.26 651.80, 558.19 653.18 C 555.12 654.57, 539.08 654.17, 535.51 653.18 C 531.95 652.19, 521.39 644.17, 519.31 642.38 C 517.23 640.60, 513.43 634.54, 512.83 633.74"/>
<path d="M 511.75 634.82 C 517.30 634.82, 566.69 634.82, 572.23 634.82"/></g>
<g transform="rotate(180.00 420.00 640.37)" opacity="0.65"><path d="M 409.20 595.01 C 409.99 596.99, 416.55 612.65, 417.84 616.61 C 419.13 620.57, 423.24 634.25, 423.24 638.21 C 423.24 642.17, 419.62 655.85, 417.84 659.81 C 416.06 663.77, 405.09 679.43, 403.80 681.41"/>
<path d="M 422.16 634.97 C 423.35 633.79, 432.94 624.29, 435.12 622.01 C 437.30 619.74, 444.93 611.22, 445.92 610.13"/>
<path d="M 414.60 661.97 C 415.69 663.16, 424.00 673.35, 426.48 674.93 C 428.96 676.52, 440.21 678.86, 441.60 679.25"/></g>
<g transform="rotate(210.00 287.09 650.20)" opacity="0.78"><path d="M 287.09 650.20 C 287.39 650.00, 289.84 648.04, 290.33 648.04 C 290.83 648.04, 292.49 649.70, 292.49 650.20 C 292.49 650.69, 290.83 653.44, 290.33 653.44 C 289.84 653.44, 287.39 650.50, 287.09 650.20"/>
<path d="M 287.09 631.84 C 288.78 631.84, 302.78 630.16, 305.45 631.84 C 308.13 633.52, 316.25 646.83, 316.25 650.20 C 316.25 653.57, 308.13 666.88, 305.45 668.56 C 302.78 670.24, 290.46 668.56, 287.09 668.56 C 283.73 668.56, 271.41 670.24, 268.73 668.56 C 266.06 666.88, 257.93 653.57, 257.93 650.20 C 257.93 646.83, 266.06 633.52, 268.73 631.84 C 271.41 630.16, 285.41 631.84, 287.09 631.84"/>
<path d="M 287.09 615.64 C 290.36 615.64, 318.18 612.47, 322.73 615.64 C 327.29 618.81, 336.77 643.86, 336.77 650.20 C 336.77 656.54, 327.29 681.59, 322.73 684.76 C 318.18 687.93, 293.63 684.76, 287.09 684.76 C 280.56 684.76, 256.01 687.93, 251.45 684.76 C 246.90 681.59, 237.41 656.54, 237.41 650.20 C 237.41 643.86, 246.90 618.81, 251.45 615.64 C 256.01 612.47, 283.83 615.64, 287.09 615.64"/></g>
<g transform="rotate(240.00 181.37 557.78)" opacity="0.90"><path d="M 186.77 511.34 C 186.27 513.02, 181.96 526.23, 181.37 529.70 C 180.77 533.16, 179.79 545.57, 180.29 549.14 C 180.78 552.70, 184.98 565.31, 186.77 568.58 C 188.55 571.84, 197.45 581.81, 199.73 584.78 C 202.00 587.75, 210.52 599.49, 211.61 600.98"/>
<path d="M 202.97 516.74 C 201.48 518.32, 189.64 530.95, 186.77 534.02 C 183.89 537.08, 173.63 547.05, 171.65 550.22 C 169.67 553.38, 165.46 565.61, 165.17 568.58 C 164.87 571.55, 166.92 580.83, 168.41 582.62 C 169.89 584.40, 178.99 588.11, 181.37 588.02 C 183.74 587.92, 192.84 583.52, 194.33 581.54 C 195.81 579.56, 197.96 569.29, 197.57 566.42 C 197.17 563.54, 192.08 552.89, 190.01 550.22 C 187.93 547.54, 177.86 539.43, 174.89 537.26 C 171.92 535.08, 159.19 527.45, 157.61 526.46"/>
<path d="M 160.85 554.54 C 165.40 554.54, 205.97 554.54, 210.53 554.54"/></g>
<g transform="rotate(270.00 192.40 420.00)" opacity="0.65"><path d="M 160.00 398.40 C 160.69 401.07, 165.97 423.60, 167.56 427.56 C 169.14 431.52, 175.30 441.30, 177.28 441.60 C 179.26 441.90, 187.57 433.97, 189.16 430.80 C 190.74 427.63, 194.06 409.22, 194.56 407.04"/>
<path d="M 194.56 407.04 C 195.45 409.42, 202.20 429.79, 204.28 432.96 C 206.35 436.13, 215.16 443.38, 217.24 441.60 C 219.31 439.82, 226.06 416.09, 226.96 413.52"/></g>
<g transform="rotate(300.00 220.62 304.89)" opacity="0.78"><path d="M 217.38 269.25 C 217.78 270.74, 222.10 282.48, 221.70 285.45 C 221.31 288.42, 215.14 298.98, 213.06 301.65 C 210.98 304.32, 200.90 311.74, 199.02 314.61 C 197.14 317.48, 192.05 330.10, 192.54 332.97 C 193.04 335.84, 203.33 344.74, 204.42 345.93"/>
<path d="M 218.46 272.49 C 219.75 271.30, 229.73 260.32, 232.50 259.53 C 235.28 258.74, 246.72 261.97, 248.70 263.85 C 250.68 265.73, 253.61 278.57, 254.10 280.05"/></g>
<g transform="rotate(330.00 281.25 179.68)" opacity="0.90"><path d="M 281.25 134.32 C 281.25 142.44, 281.25 214.77, 281.25 222.88"/>
<path d="M 281.25 163.48 C 279.77 161.80, 268.02 145.82, 265.05 145.12 C 262.08 144.43, 250.14 152.95, 248.85 155.92 C 247.57 158.89, 249.33 174.36, 251.01 177.52 C 252.70 180.69, 264.24 189.79, 267.21 190.48 C 270.18 191.18, 281.93 185.58, 283.41 185.08"/>
<path d="M 281.25 164.56 C 283.04 163.38, 297.92 151.60, 300.69 151.60 C 303.47 151.60, 310.90 161.79, 311.49 164.56 C 312.09 167.34, 307.57 180.26, 307.17 181.84"/></g>
<g transform="rotate(360.00 420.00 157.30)" opacity="0.65"><path d="M 376.80 191.86 C 377.59 188.89, 385.24 164.41, 385.44 159.46 C 385.64 154.51, 378.17 140.24, 378.96 137.86 C 379.75 135.49, 392.00 131.96, 394.08 133.54 C 396.16 135.13, 401.84 150.00, 401.64 155.14 C 401.44 160.29, 394.00 185.74, 391.92 189.70 C 389.84 193.66, 380.15 197.55, 378.96 198.34"/>
<path d="M 393.00 191.86 C 393.79 188.70, 401.44 162.45, 401.64 157.30 C 401.84 152.16, 394.27 137.98, 395.16 135.70 C 396.05 133.43, 409.18 130.68, 411.36 132.46 C 413.54 134.25, 419.12 149.90, 418.92 155.14 C 418.72 160.39, 411.38 185.65, 409.20 189.70 C 407.02 193.76, 396.45 198.53, 395.16 199.42"/>
<path d="M 409.20 191.86 C 410.19 188.50, 419.31 160.39, 420.00 155.14 C 420.69 149.90, 415.57 136.90, 416.76 134.62 C 417.95 132.35, 430.88 128.72, 432.96 130.30 C 435.04 131.89, 439.84 146.76, 439.44 151.90 C 439.04 157.05, 431.02 182.01, 428.64 186.46 C 426.26 190.92, 414.91 199.22, 413.52 200.50"/>
<path d="M 431.88 185.38 C 433.17 183.90, 443.64 172.55, 445.92 169.18 C 448.20 165.82, 454.84 152.92, 456.72 148.66 C 458.60 144.41, 465.55 125.12, 466.44 122.74"/>
<path d="M 444.84 189.70 C 445.93 187.82, 454.74 172.75, 456.72 169.18 C 458.70 165.62, 465.55 152.51, 466.44 150.82"/>
<path d="M 457.80 195.10 C 458.49 193.62, 464.17 181.78, 465.36 178.90 C 466.55 176.03, 470.26 165.17, 470.76 163.78"/></g>
<g transform="rotate(390.00 529.62 230.14)" opacity="0.78"><path d="M 495.06 253.90 C 496.34 251.42, 505.73 231.75, 509.10 226.90 C 512.46 222.05, 527.22 202.96, 531.78 200.98 C 536.33 199.00, 555.51 203.71, 558.78 205.30 C 562.04 206.88, 567.52 215.39, 567.42 218.26 C 567.32 221.13, 558.59 234.93, 557.70 236.62"/></g>
<g transform="rotate(420.00 632.38 297.38)" opacity="0.90"><path d="M 610.78 254.18 C 614.94 254.18, 651.98 246.26, 656.14 254.18 C 660.30 262.10, 660.30 332.66, 656.14 340.58 C 651.98 348.50, 614.94 340.58, 610.78 340.58"/>
<path d="M 610.78 297.38 C 614.94 297.38, 651.98 297.38, 656.14 297.38"/></g>
  </g>
  <g fill="none" stroke="#141022" stroke-width="7" stroke-linecap="round" stroke-linejoin="round">
    <path d="M 308.00 477.60 C 310.05 469.90, 329.89 406.43, 330.40 393.60 C 330.91 380.77, 311.55 343.76, 313.60 337.60 C 315.65 331.44, 347.41 322.29, 352.80 326.40 C 358.19 330.51, 372.91 369.05, 372.40 382.40 C 371.89 395.75, 352.59 461.73, 347.20 472.00 C 341.81 482.27, 316.68 492.35, 313.60 494.40"/>
<path d="M 350.00 477.60 C 352.05 469.39, 371.89 401.35, 372.40 388.00 C 372.91 374.65, 353.29 337.90, 355.60 332.00 C 357.91 326.10, 391.95 318.98, 397.60 323.60 C 403.25 328.22, 417.71 368.80, 417.20 382.40 C 416.69 396.00, 397.65 461.48, 392.00 472.00 C 386.35 482.52, 358.94 494.89, 355.60 497.20"/>
<path d="M 392.00 477.60 C 394.57 468.87, 418.20 396.00, 420.00 382.40 C 421.80 368.80, 408.52 335.10, 411.60 329.20 C 414.68 323.30, 448.21 313.89, 453.60 318.00 C 458.99 322.11, 471.43 360.65, 470.40 374.00 C 469.37 387.35, 448.56 452.05, 442.40 463.60 C 436.24 475.15, 406.79 496.66, 403.20 500.00"/>
<path d="M 450.80 460.80 C 454.14 456.95, 481.30 427.53, 487.20 418.80 C 493.10 410.07, 510.32 376.64, 515.20 365.60 C 520.08 354.56, 538.09 304.56, 540.40 298.40"/>
<path d="M 484.40 472.00 C 487.22 467.12, 510.07 428.04, 515.20 418.80 C 520.33 409.56, 538.09 375.56, 540.40 371.20"/>
<path d="M 518.00 486.00 C 519.80 482.15, 534.52 451.44, 537.60 444.00 C 540.68 436.56, 550.32 408.39, 551.60 404.80"/>
    <g transform="rotate(90.00 670.00 420.00)" opacity="0.65"><path d="M 684.04 376.80 C 682.06 377.49, 665.61 382.38, 662.44 384.36 C 659.27 386.34, 650.77 395.83, 649.48 398.40 C 648.19 400.97, 647.31 410.26, 648.40 412.44 C 649.49 414.62, 660.17 421.27, 661.36 422.16"/>
<path d="M 684.04 376.80 C 684.93 376.11, 691.88 370.03, 693.76 369.24 C 695.64 368.45, 704.16 367.47, 704.56 368.16 C 704.96 368.85, 700.46 375.22, 698.08 376.80 C 695.70 378.38, 680.42 384.65, 678.64 385.44"/></g>
<g transform="rotate(120.00 663.99 560.87)" opacity="0.78"><path d="M 668.31 515.51 C 669.30 516.30, 678.42 522.17, 679.11 524.15 C 679.80 526.13, 677.45 535.03, 675.87 537.11 C 674.28 539.19, 664.40 545.34, 661.83 546.83 C 659.25 548.31, 649.08 552.71, 647.79 553.31"/>
<path d="M 661.83 546.83 C 662.72 548.01, 670.76 557.31, 671.55 559.79 C 672.34 562.26, 672.25 571.05, 670.47 573.83 C 668.69 576.60, 655.47 587.85, 652.11 590.03 C 648.74 592.20, 635.43 596.89, 633.75 597.59"/></g>
<g transform="rotate(150.00 540.91 629.42)" opacity="0.90"><path d="M 541.99 586.22 C 541.99 594.14, 541.99 664.70, 541.99 672.62"/>
<path d="M 512.83 633.74 C 513.62 631.76, 518.60 614.52, 521.47 612.14 C 524.34 609.77, 540.29 607.03, 544.15 607.82 C 548.01 608.62, 561.31 618.01, 563.59 620.78 C 565.87 623.56, 569.49 635.09, 568.99 638.06 C 568.50 641.03, 561.26 651.80, 558.19 653.18 C 555.12 654.57, 539.08 654.17, 535.51 653.18 C 531.95 652.19, 521.39 644.17, 519.31 642.38 C 517.23 640.60, 513.43 634.54, 512.83 633.74"/>
<path d="M 511.75 634.82 C 517.30 634.82, 566.69 634.82, 572.23 634.82"/></g>
<g transform="rotate(180.00 420.00 640.37)" opacity="0.65"><path d="M 409.20 595.01 C 409.99 596.99, 416.55 612.65, 417.84 616.61 C 419.13 620.57, 423.24 634.25, 423.24 638.21 C 423.24 642.17, 419.62 655.85, 417.84 659.81 C 416.06 663.77, 405.09 679.43, 403.80 681.41"/>
<path d="M 422.16 634.97 C 423.35 633.79, 432.94 624.29, 435.12 622.01 C 437.30 619.74, 444.93 611.22, 445.92 610.13"/>
<path d="M 414.60 661.97 C 415.69 663.16, 424.00 673.35, 426.48 674.93 C 428.96 676.52, 440.21 678.86, 441.60 679.25"/></g>
<g transform="rotate(210.00 287.09 650.20)" opacity="0.78"><path d="M 287.09 650.20 C 287.39 650.00, 289.84 648.04, 290.33 648.04 C 290.83 648.04, 292.49 649.70, 292.49 650.20 C 292.49 650.69, 290.83 653.44, 290.33 653.44 C 289.84 653.44, 287.39 650.50, 287.09 650.20"/>
<path d="M 287.09 631.84 C 288.78 631.84, 302.78 630.16, 305.45 631.84 C 308.13 633.52, 316.25 646.83, 316.25 650.20 C 316.25 653.57, 308.13 666.88, 305.45 668.56 C 302.78 670.24, 290.46 668.56, 287.09 668.56 C 283.73 668.56, 271.41 670.24, 268.73 668.56 C 266.06 666.88, 257.93 653.57, 257.93 650.20 C 257.93 646.83, 266.06 633.52, 268.73 631.84 C 271.41 630.16, 285.41 631.84, 287.09 631.84"/>
<path d="M 287.09 615.64 C 290.36 615.64, 318.18 612.47, 322.73 615.64 C 327.29 618.81, 336.77 643.86, 336.77 650.20 C 336.77 656.54, 327.29 681.59, 322.73 684.76 C 318.18 687.93, 293.63 684.76, 287.09 684.76 C 280.56 684.76, 256.01 687.93, 251.45 684.76 C 246.90 681.59, 237.41 656.54, 237.41 650.20 C 237.41 643.86, 246.90 618.81, 251.45 615.64 C 256.01 612.47, 283.83 615.64, 287.09 615.64"/></g>
<g transform="rotate(240.00 181.37 557.78)" opacity="0.90"><path d="M 186.77 511.34 C 186.27 513.02, 181.96 526.23, 181.37 529.70 C 180.77 533.16, 179.79 545.57, 180.29 549.14 C 180.78 552.70, 184.98 565.31, 186.77 568.58 C 188.55 571.84, 197.45 581.81, 199.73 584.78 C 202.00 587.75, 210.52 599.49, 211.61 600.98"/>
<path d="M 202.97 516.74 C 201.48 518.32, 189.64 530.95, 186.77 534.02 C 183.89 537.08, 173.63 547.05, 171.65 550.22 C 169.67 553.38, 165.46 565.61, 165.17 568.58 C 164.87 571.55, 166.92 580.83, 168.41 582.62 C 169.89 584.40, 178.99 588.11, 181.37 588.02 C 183.74 587.92, 192.84 583.52, 194.33 581.54 C 195.81 579.56, 197.96 569.29, 197.57 566.42 C 197.17 563.54, 192.08 552.89, 190.01 550.22 C 187.93 547.54, 177.86 539.43, 174.89 537.26 C 171.92 535.08, 159.19 527.45, 157.61 526.46"/>
<path d="M 160.85 554.54 C 165.40 554.54, 205.97 554.54, 210.53 554.54"/></g>
<g transform="rotate(270.00 192.40 420.00)" opacity="0.65"><path d="M 160.00 398.40 C 160.69 401.07, 165.97 423.60, 167.56 427.56 C 169.14 431.52, 175.30 441.30, 177.28 441.60 C 179.26 441.90, 187.57 433.97, 189.16 430.80 C 190.74 427.63, 194.06 409.22, 194.56 407.04"/>
<path d="M 194.56 407.04 C 195.45 409.42, 202.20 429.79, 204.28 432.96 C 206.35 436.13, 215.16 443.38, 217.24 441.60 C 219.31 439.82, 226.06 416.09, 226.96 413.52"/></g>
<g transform="rotate(300.00 220.62 304.89)" opacity="0.78"><path d="M 217.38 269.25 C 217.78 270.74, 222.10 282.48, 221.70 285.45 C 221.31 288.42, 215.14 298.98, 213.06 301.65 C 210.98 304.32, 200.90 311.74, 199.02 314.61 C 197.14 317.48, 192.05 330.10, 192.54 332.97 C 193.04 335.84, 203.33 344.74, 204.42 345.93"/>
<path d="M 218.46 272.49 C 219.75 271.30, 229.73 260.32, 232.50 259.53 C 235.28 258.74, 246.72 261.97, 248.70 263.85 C 250.68 265.73, 253.61 278.57, 254.10 280.05"/></g>
<g transform="rotate(330.00 281.25 179.68)" opacity="0.90"><path d="M 281.25 134.32 C 281.25 142.44, 281.25 214.77, 281.25 222.88"/>
<path d="M 281.25 163.48 C 279.77 161.80, 268.02 145.82, 265.05 145.12 C 262.08 144.43, 250.14 152.95, 248.85 155.92 C 247.57 158.89, 249.33 174.36, 251.01 177.52 C 252.70 180.69, 264.24 189.79, 267.21 190.48 C 270.18 191.18, 281.93 185.58, 283.41 185.08"/>
<path d="M 281.25 164.56 C 283.04 163.38, 297.92 151.60, 300.69 151.60 C 303.47 151.60, 310.90 161.79, 311.49 164.56 C 312.09 167.34, 307.57 180.26, 307.17 181.84"/></g>
<g transform="rotate(360.00 420.00 157.30)" opacity="0.65"><path d="M 376.80 191.86 C 377.59 188.89, 385.24 164.41, 385.44 159.46 C 385.64 154.51, 378.17 140.24, 378.96 137.86 C 379.75 135.49, 392.00 131.96, 394.08 133.54 C 396.16 135.13, 401.84 150.00, 401.64 155.14 C 401.44 160.29, 394.00 185.74, 391.92 189.70 C 389.84 193.66, 380.15 197.55, 378.96 198.34"/>
<path d="M 393.00 191.86 C 393.79 188.70, 401.44 162.45, 401.64 157.30 C 401.84 152.16, 394.27 137.98, 395.16 135.70 C 396.05 133.43, 409.18 130.68, 411.36 132.46 C 413.54 134.25, 419.12 149.90, 418.92 155.14 C 418.72 160.39, 411.38 185.65, 409.20 189.70 C 407.02 193.76, 396.45 198.53, 395.16 199.42"/>
<path d="M 409.20 191.86 C 410.19 188.50, 419.31 160.39, 420.00 155.14 C 420.69 149.90, 415.57 136.90, 416.76 134.62 C 417.95 132.35, 430.88 128.72, 432.96 130.30 C 435.04 131.89, 439.84 146.76, 439.44 151.90 C 439.04 157.05, 431.02 182.01, 428.64 186.46 C 426.26 190.92, 414.91 199.22, 413.52 200.50"/>
<path d="M 431.88 185.38 C 433.17 183.90, 443.64 172.55, 445.92 169.18 C 448.20 165.82, 454.84 152.92, 456.72 148.66 C 458.60 144.41, 465.55 125.12, 466.44 122.74"/>
<path d="M 444.84 189.70 C 445.93 187.82, 454.74 172.75, 456.72 169.18 C 458.70 165.62, 465.55 152.51, 466.44 150.82"/>
<path d="M 457.80 195.10 C 458.49 193.62, 464.17 181.78, 465.36 178.90 C 466.55 176.03, 470.26 165.17, 470.76 163.78"/></g>
<g transform="rotate(390.00 529.62 230.14)" opacity="0.78"><path d="M 495.06 253.90 C 496.34 251.42, 505.73 231.75, 509.10 226.90 C 512.46 222.05, 527.22 202.96, 531.78 200.98 C 536.33 199.00, 555.51 203.71, 558.78 205.30 C 562.04 206.88, 567.52 215.39, 567.42 218.26 C 567.32 221.13, 558.59 234.93, 557.70 236.62"/></g>
<g transform="rotate(420.00 632.38 297.38)" opacity="0.90"><path d="M 610.78 254.18 C 614.94 254.18, 651.98 246.26, 656.14 254.18 C 660.30 262.10, 660.30 332.66, 656.14 340.58 C 651.98 348.50, 614.94 340.58, 610.78 340.58"/>
<path d="M 610.78 297.38 C 614.94 297.38, 651.98 297.38, 656.14 297.38"/></g>
  </g>
  <text x="70" y="96" font-family="ui-rounded, system-ui, sans-serif" font-size="56" font-weight="850" letter-spacing="-3" fill="#141022">Morphic Typo</text>
  <text x="74" y="136" font-family="ui-monospace, SFMono-Regular, Menlo, monospace" font-size="16" fill="#665f76">bezier symbol flow · phi/rho/lambda/zeta modulation · offline svg/canvas</text>
</svg>
